<?xml version="1.0" standalone="no"?>
<!DOCTYPE svg PUBLIC "-//W3C//DTD SVG 20010904//EN"
 "http://www.w3.org/TR/2001/REC-SVG-20010904/DTD/svg10.dtd">
<svg version="1.0" xmlns="http://www.w3.org/2000/svg"
 width="512.000000pt" height="512.000000pt" viewBox="0 0 512.000000 512.000000"
 preserveAspectRatio="xMidYMid meet">
<metadata>
Created by potrace 1.11, written by Peter Selinger 2001-2013
</metadata>
<g transform="translate(0.000000,512.000000) scale(0.100000,-0.100000)"
fill="#000000" stroke="none">
<path d="M1165 5113 c-70 -6 -236 -44 -309 -70 -365 -131 -664 -436 -786 -801
-69 -207 -65 -113 -65 -1687 0 -1576 -4 -1468 66 -1679 124 -374 432 -681 805
-805 210 -70 90 -65 1634 -68 1551 -4 1514 -5 1717 62 400 133 695 428 828
828 67 203 66 166 62 1717 -3 1544 2 1424 -68 1634 -124 373 -432 681 -805
805 -210 70 -88 65 -1639 67 -770 0 -1418 -1 -1440 -3z m1853 -1449 c91 -18
253 -93 332 -152 l54 -42 133 0 c145 0 163 -6 163 -60 0 -47 -22 -60 -101 -60
-38 0 -69 -3 -69 -6 0 -3 13 -23 28 -43 81 -103 143 -258 162 -401 36 -278
-58 -510 -261 -646 -39 -25 -102 -58 -141 -71 l-71 -25 -22 24 c-18 19 -757
880 -918 1070 l-48 56 25 49 c74 147 228 267 393 307 79 19 247 19 341 0z
m-550 -726 c142 -167 360 -421 484 -565 l225 -263 -30 -60 c-43 -84 -135 -196
-258 -315 -340 -326 -803 -482 -1147 -385 -226 63 -387 225 -448 450 -25 92
-25 297 -1 405 81 348 344 708 676 922 48 32 213 111 233 112 4 1 123 -135
266 -301z"/>
</g>
</svg>
